<?xml version="1.0" standalone="no"?>
<!DOCTYPE svg PUBLIC "-//W3C//DTD SVG 20010904//EN"
 "http://www.w3.org/TR/2001/REC-SVG-20010904/DTD/svg10.dtd">
<svg version="1.0" xmlns="http://www.w3.org/2000/svg"
 width="300.000000pt" height="120.000000pt" viewBox="0 0 300.000000 120.000000"
 preserveAspectRatio="xMidYMid meet">
<metadata>
Created by potrace 1.10, written by Peter Selinger 2001-2011
</metadata>
<g transform="translate(0.000000,120.000000) scale(0.100000,-0.100000)"
fill="#000000" stroke="none">
<path d="M506 1118 c-84 -85 -68 -74 39 26 33 31 56 56 52 56 -4 0 -45 -37
-91 -82z"/>
<path d="M827 1108 c3 -51 7 -95 9 -97 2 -2 4 39 4 92 0 54 -4 97 -9 97 -6 0
-7 -38 -4 -92z"/>
<path d="M945 1103 c-55 -52 -93 -91 -84 -87 22 12 193 174 188 178 -2 2 -49
-39 -104 -91z"/>
<path d="M1118 1194 c-5 -4 -8 -31 -8 -60 l0 -52 -87 -82 c-49 -46 -81 -79
-72 -74 9 5 53 43 98 85 l82 76 -3 57 c-2 32 -6 54 -10 50z"/>
<path d="M2027 1164 c-21 -20 -37 -38 -35 -40 3 -2 22 14 43 36 48 50 43 52
-8 4z"/>
<path d="M2248 1118 c-50 -49 -58 -59 -19 -24 94 85 116 106 110 106 -3 0 -44
-37 -91 -82z"/>
<path d="M2440 1176 c0 -15 -14 -36 -37 -56 -21 -18 -85 -77 -143 -130 -153
-142 -164 -150 -199 -150 -17 0 -31 4 -31 8 0 5 48 53 107 108 128 119 251
239 209 204 -17 -14 -85 -75 -151 -135 -66 -60 -141 -129 -167 -152 l-47 -43
62 0 62 0 173 161 c132 123 172 166 172 185 0 13 -2 24 -5 24 -3 0 -5 -11 -5
-24z"/>
<path d="M2472 1175 c0 -16 2 -22 5 -12 2 9 2 23 0 30 -3 6 -5 -1 -5 -18z"/>
<path d="M2652 1180 c0 -14 2 -19 5 -12 2 6 2 18 0 25 -3 6 -5 1 -5 -13z"/>
<path d="M2684 1168 l-19 -23 23 19 c21 18 27 26 19 26 -2 0 -12 -10 -23 -22z"/>
<path d="M2935 1143 c-27 -25 -41 -41 -30 -35 19 10 94 83 84 82 -2 -1 -26
-21 -54 -47z"/>
<path d="M2991 1118 c-1 -46 -13 -54 -46 -32 -23 15 -25 15 -19 0 7 -19 4 -19
-30 -6 -20 7 -24 6 -20 -5 4 -9 23 -13 60 -13 48 1 55 3 60 23 3 13 4 34 1 46
-3 17 -5 12 -6 -13z"/>
<path d="M2473 1070 c0 -41 2 -58 4 -37 2 20 2 54 0 75 -2 20 -4 3 -4 -38z"/>
<path d="M629 1058 l-64 -61 63 53 c34 28 65 56 68 61 13 21 -8 5 -67 -53z"/>
<path d="M713 1060 c0 -36 2 -50 4 -32 2 17 2 47 0 65 -2 17 -4 3 -4 -33z"/>
<path d="M1959 1103 c-13 -16 -12 -17 4 -4 16 13 21 21 13 21 -2 0 -10 -8 -17
-17z"/>
<path d="M645 1037 c-36 -36 -23 -34 15 2 27 26 25 -27 -1 -57 l-23 -27 27 26
c23 21 28 33 25 61 l-3 35 -40 -40z"/>
<path d="M1830 980 l-105 -99 139 -1 138 0 67 67 c65 65 47 55 -34 -19 l-40
-38 -117 3 -118 2 92 92 c51 51 90 93 88 93 -3 -1 -52 -46 -110 -100z"/>
<path d="M2833 1038 c1 -15 9 -18 57 -16 35 1 43 3 23 5 -18 2 -33 8 -33 12 0
5 -11 11 -24 13 -19 4 -24 1 -23 -14z"/>
<path d="M1098 1027 c-24 -19 -28 -30 -26 -67 l1 -45 4 40 c8 76 43 89 43 16
0 -39 -4 -50 -17 -53 -15 -3 -14 -5 5 -10 21 -6 22 -4 22 68 0 41 -1 74 -2 74
-2 -1 -15 -11 -30 -23z"/>
<path d="M385 1004 c-17 -9 -41 -29 -55 -46 l-24 -31 24 6 c14 3 43 8 65 11
l40 6 -35 -11 c-19 -6 -57 -17 -85 -25 -43 -12 -57 -23 -95 -73 -25 -33 -49
-60 -54 -60 -5 -1 -4 5 1 12 5 6 24 31 42 55 36 46 34 49 -8 27 -29 -15 -41
-33 -41 -65 0 -13 -5 -17 -20 -13 -11 3 -20 10 -20 17 0 16 62 63 112 86 24
11 59 33 78 50 l34 30 -30 0 c-42 0 -95 -31 -124 -73 -14 -19 -40 -47 -57 -62
-41 -33 -41 -43 -4 -56 29 -10 29 -11 15 -44 -12 -30 -12 -36 2 -49 14 -14 18
-14 36 -2 18 13 24 12 50 -7 l29 -21 42 42 c34 35 39 44 27 52 -13 8 -13 10 0
14 8 2 26 4 40 3 18 -2 28 5 37 25 16 32 59 68 81 68 9 0 28 12 44 27 15 14
30 24 33 21 5 -5 13 -147 14 -251 1 -23 5 -36 11 -32 6 4 10 76 10 183 l0 176
-59 -58 -58 -58 -21 30 -22 30 25 0 c32 0 41 -14 23 -36 -12 -15 -11 -16 5 -3
9 7 17 19 17 27 0 19 -33 34 -60 27 -21 -5 -22 -3 -17 19 10 37 -11 51 -48 32z
m45 -11 c-1 -20 -18 -32 -38 -26 -24 6 -29 19 -9 26 19 8 47 8 47 0z m8 -124
c-7 -5 -20 -1 -30 8 -13 12 -28 14 -60 9 -57 -9 -38 9 22 22 40 8 47 7 63 -11
14 -16 15 -22 5 -28z m-47 -10 c24 -12 15 -32 -12 -24 -10 4 -19 2 -19 -3 0
-5 9 -12 20 -15 13 -3 18 -10 14 -21 -5 -14 -9 -14 -35 0 -33 16 -38 48 -11
63 21 13 20 13 43 0z m-81 -37 c0 -21 -6 -46 -13 -56 -15 -20 -58 -19 -65 2
-3 9 3 13 19 10 22 -3 24 0 21 40 -2 36 0 42 18 42 17 0 20 -7 20 -38z m-77
-12 c-9 -16 -21 -30 -26 -30 -9 0 -1 17 21 43 23 26 25 21 5 -13z m-49 -69
c15 -28 14 -29 -9 -34 -26 -4 -32 12 -19 47 8 22 11 20 28 -13z"/>
<path d="M2425 928 l-98 -93 229 5 229 5 -202 3 c-112 1 -203 5 -203 8 0 3 32
39 71 79 l71 72 126 2 c69 1 128 4 131 6 2 3 -54 5 -126 5 l-130 0 -98 -92z"/>
<path d="M2978 1013 c7 -3 16 -2 19 1 4 3 -2 6 -13 5 -11 0 -14 -3 -6 -6z"/>
<path d="M712 965 c0 -16 2 -22 5 -12 2 9 2 23 0 30 -3 6 -5 -1 -5 -18z"/>
<path d="M1008 903 c12 -2 30 -2 40 0 9 3 -1 5 -23 4 -22 0 -30 -2 -17 -4z"/>
<path d="M1110 883 c19 -8 48 -27 65 -41 l30 -27 -25 29 c-23 26 -78 57 -97
55 -4 0 8 -7 27 -16z"/>
<path d="M715 745 c-66 -62 -117 -116 -113 -120 6 -6 40 21 142 118 28 26 54
47 58 47 5 0 8 -21 8 -47 0 -43 -4 -51 -42 -84 -24 -20 -40 -40 -36 -44 4 -4
30 15 58 41 l51 49 -3 76 -3 77 -120 -113z"/>
<path d="M647 822 c-26 -28 -27 -28 -4 -29 12 0 16 1 9 4 -10 4 -8 11 9 29 12
13 20 24 18 24 -3 0 -17 -13 -32 -28z"/>
<path d="M2803 843 c9 -2 25 -2 35 0 9 3 1 5 -18 5 -19 0 -27 -2 -17 -5z"/>
<path d="M2887 811 c44 -37 113 -75 113 -62 0 6 -5 11 -11 11 -5 0 -8 4 -5 8
8 13 -53 54 -93 63 l-36 8 32 -28z"/>
<path d="M1114 802 c-18 -3 -23 -15 -36 -95 -9 -51 -15 -93 -14 -93 0 -1 18
-4 39 -8 25 -5 37 -3 37 5 0 6 -6 9 -13 6 -10 -4 -13 13 -13 74 0 43 4 79 8
79 5 0 15 -15 23 -33 16 -38 55 -78 41 -42 -5 11 -15 39 -23 62 -17 48 -19 50
-49 45z"/>
<path d="M1717 776 l-21 -29 -9 26 c-7 21 -15 27 -37 27 l-29 0 20 -45 20 -45
-20 -29 c-11 -15 -27 -34 -36 -41 -22 -18 -19 -30 10 -30 16 0 32 11 47 30
l22 30 12 -29 c13 -31 41 -41 93 -33 22 3 31 10 31 23 0 15 7 19 34 19 29 0
33 -3 29 -20 -4 -16 0 -20 19 -20 22 0 25 6 35 73 15 91 3 117 -55 117 -64 0
-85 -32 -107 -155 l-7 -40 -26 51 -25 52 33 40 c18 23 37 39 41 36 5 -3 6 1 3
9 -9 25 -54 15 -77 -17z m178 -51 c0 -27 -4 -30 -32 -33 -27 -3 -33 0 -33 17
0 25 28 53 49 49 10 -2 16 -13 16 -33z m-190 -16 c1 -13 5 -33 9 -44 7 -18 6
-18 -4 -2 -6 9 -16 17 -23 17 -7 0 -12 14 -12 34 0 27 3 32 14 26 8 -4 15 -18
16 -31z m114 -45 c-15 -18 -22 -13 -13 10 3 9 10 13 16 10 5 -3 4 -12 -3 -20z
m91 5 c0 -11 -4 -18 -10 -14 -5 3 -7 12 -3 20 7 21 13 19 13 -6z"/>
<path d="M1985 796 c-5 -20 -25 -156 -25 -171 0 -8 9 -15 19 -15 16 0 21 9 25
43 3 23 5 57 3 76 -3 45 18 51 32 9 9 -26 9 -30 -1 -20 -6 6 -17 12 -22 12 -7
0 -7 -3 0 -8 6 -4 19 -31 28 -59 15 -45 21 -53 42 -53 39 0 38 -22 -5 -101
-23 -41 -41 -79 -41 -85 0 -6 15 -15 34 -21 29 -9 36 -8 41 5 3 8 3 17 0 20
-3 3 -5 1 -5 -5 0 -5 -7 -10 -15 -10 -10 0 -14 6 -10 14 3 8 5 17 5 19 0 2 15
4 34 4 23 0 38 -7 48 -21 11 -17 26 -22 73 -24 34 -2 53 0 46 5 -10 6 -9 9 7
14 30 10 45 32 52 82 6 41 5 46 -21 65 -16 11 -45 23 -64 26 -31 5 -35 3 -35
-16 0 -16 6 -21 25 -21 35 0 68 -35 60 -63 -8 -27 -33 -47 -57 -47 -11 0 -18
-7 -18 -20 0 -11 -3 -20 -8 -20 -11 0 -106 192 -103 210 2 13 1 13 -8 0 -14
-20 -14 -6 4 87 19 100 19 100 -7 98 -19 -1 -24 -9 -28 -48 -7 -59 -15 -66
-29 -26 -6 18 -9 34 -7 37 3 2 -2 11 -11 20 -18 19 -54 23 -58 8z m102 -105
c10 9 13 7 13 -7 0 -11 -4 -25 -9 -33 -7 -11 -13 -6 -26 20 -10 20 -12 29 -4
22 9 -9 16 -10 26 -2z m52 -168 c-1 -10 2 -28 6 -40 6 -20 4 -23 -18 -23 -26
0 -26 1 -12 34 8 18 11 36 8 40 -4 3 -1 6 5 6 6 0 11 -8 11 -17z"/>
<path d="M1196 754 c-3 -26 -2 -52 3 -58 10 -12 9 -51 -2 -51 -3 0 -19 19 -36
43 -31 42 -50 58 -31 25 6 -10 16 -36 24 -58 10 -30 19 -41 37 -43 24 -3 26 1
37 70 7 40 15 83 18 96 5 18 2 22 -18 22 -22 0 -26 -5 -32 -46z"/>
<path d="M1276 783 c-11 -40 -18 -112 -11 -133 9 -27 64 -53 83 -38 8 7 17 7
27 -2 17 -14 28 -8 31 15 1 8 -2 13 -7 9 -5 -3 -7 -10 -4 -15 4 -5 2 -9 -3 -9
-19 0 -21 14 -6 31 15 16 43 113 44 147 0 6 -11 12 -24 12 -22 0 -25 -5 -31
-60 -7 -62 -22 -84 -52 -78 -19 4 -21 16 -9 91 7 43 5 47 -13 47 -11 0 -22 -8
-25 -17z"/>
<path d="M1449 708 c-9 -51 -16 -93 -15 -94 1 -1 13 -4 27 -7 24 -6 26 -4 21
18 -3 20 0 25 17 25 12 0 21 -6 21 -15 0 -14 37 -35 60 -35 5 0 1 14 -7 32
-12 23 -13 33 -4 36 15 5 41 55 41 80 0 34 -32 52 -91 52 l-55 0 -15 -92z
m106 22 c0 -18 -8 -27 -27 -34 -35 -12 -40 -7 -32 33 6 27 11 32 33 29 20 -2
26 -9 26 -28z m-77 -66 c-14 -14 -15 -14 -10 11 3 19 8 23 15 16 8 -8 7 -16
-5 -27z m72 2 c0 -11 -19 -15 -25 -6 -3 5 1 10 9 10 9 0 16 -2 16 -4z"/>
<path d="M2151 783 c0 -5 4 -17 9 -28 8 -18 9 -17 9 8 1 15 -3 27 -9 27 -5 0
-10 -3 -9 -7z"/>
<path d="M1342 740 c0 -14 2 -19 5 -12 2 6 2 18 0 25 -3 6 -5 1 -5 -13z"/>
<path d="M395 668 c-44 -40 -90 -82 -101 -93 -63 -59 -77 -67 -107 -70 -62 -6
-61 8 8 76 59 58 79 86 56 77 -5 -1 -50 -42 -100 -90 l-90 -88 77 0 78 0 137
125 136 126 3 -93 3 -93 -45 -48 -45 -49 150 3 150 4 44 -30 43 -29 -22 -18
c-19 -15 -42 -18 -162 -18 l-140 0 -54 -46 -54 -46 0 -60 0 -60 63 56 62 56
101 0 101 0 39 -49 39 -49 87 -4 88 -3 -67 68 c-42 42 -61 67 -51 67 32 0 76
49 92 102 8 29 11 57 7 63 -5 5 -11 22 -14 36 -8 32 -46 81 -57 74 -5 -3 -12
0 -16 6 -4 7 -3 9 3 6 10 -6 6 81 -3 92 -8 9 -43 -32 -46 -53 -2 -16 -10 -21
-35 -21 -17 1 -29 -3 -27 -7 3 -4 -2 -8 -10 -8 -9 0 -16 -4 -16 -9 0 -5 -44
-11 -98 -13 l-99 -3 5 71 c4 66 -7 114 -26 114 -4 0 -43 -33 -87 -72z m425
-89 c0 -6 -4 -7 -10 -4 -5 3 -10 11 -10 16 0 6 5 7 10 4 6 -3 10 -11 10 -16z
m-4 -48 c47 -48 64 -70 64 -82 0 -5 6 -7 13 -3 10 6 10 4 0 -7 -18 -19 -16
-34 2 -19 9 8 4 -9 -12 -39 l-27 -53 -18 36 c-37 72 -127 112 -257 115 -47 1
-87 3 -88 5 -2 2 5 13 15 26 15 19 29 23 89 25 39 2 80 8 90 14 10 6 37 11 59
11 33 0 48 -6 70 -29z m12 -175 c12 -25 11 -29 -12 -47 -14 -11 -26 -24 -26
-29 0 -5 16 -25 37 -45 37 -36 39 -41 13 -46 -30 -6 -68 12 -108 51 l-40 40
-102 0 c-102 0 -103 0 -151 -36 l-49 -36 0 25 c0 18 14 38 46 66 l47 41 106 1
c147 2 174 6 191 28 19 25 31 22 48 -13z"/>
<path d="M2971 707 c-13 -21 -12 -21 5 -5 10 10 16 20 13 22 -3 3 -11 -5 -18
-17z"/>
<path d="M2152 695 c0 -16 2 -22 5 -12 2 9 2 23 0 30 -3 6 -5 -1 -5 -18z"/>
<path d="M410 637 c-30 -29 -88 -83 -129 -120 l-73 -67 34 0 c30 0 49 13 130
88 75 69 96 94 100 120 2 17 2 32 -2 32 -3 0 -30 -24 -60 -53z"/>
<path d="M2398 639 c-33 -30 -20 -31 16 0 14 12 50 17 160 22 l141 5 -142 2
-143 2 -32 -31z"/>
<path d="M2142 640 c0 -14 2 -19 5 -12 2 6 2 18 0 25 -3 6 -5 1 -5 -13z"/>
<path d="M2010 621 c0 -6 4 -13 10 -16 6 -3 7 1 4 9 -7 18 -14 21 -14 7z"/>
<path d="M1060 505 c0 -64 4 -95 11 -95 8 0 10 24 7 77 l-5 78 24 -55 c14 -30
25 -65 25 -77 0 -13 4 -20 9 -17 5 3 9 10 9 16 0 6 8 20 18 31 9 11 12 18 6
14 -7 -4 -22 19 -39 58 -20 47 -32 65 -46 65 -17 0 -19 -9 -19 -95z"/>
<path d="M1207 593 c-4 -3 -7 -46 -7 -94 0 -87 0 -87 28 -92 28 -5 47 2 25 10
-9 3 -13 32 -13 94 0 67 -3 89 -13 89 -8 0 -17 -3 -20 -7z"/>
<path d="M1311 510 c-25 -50 -43 -92 -40 -94 2 -2 20 -7 40 -11 28 -5 38 -3
42 10 5 11 3 14 -6 8 -22 -14 -39 -12 -33 4 3 8 6 17 6 19 0 2 15 4 34 4 22 0
38 -7 47 -20 15 -21 79 -40 79 -22 0 5 -8 12 -17 15 -10 2 -37 43 -61 91 -24
47 -44 86 -45 86 -1 0 -22 -41 -46 -90z m69 -37 c0 -7 -11 -13 -24 -13 -23 0
-24 2 -13 30 11 28 13 29 24 13 7 -9 13 -23 13 -30z"/>
<path d="M1482 580 c-12 -12 -22 -27 -22 -35 0 -21 35 -53 65 -61 28 -7 33
-19 10 -28 -8 -3 -15 -15 -15 -26 0 -23 4 -24 30 -10 16 8 18 8 14 -5 -4 -10
0 -15 12 -14 11 0 14 3 7 5 -7 3 -9 20 -7 45 5 44 -8 69 -36 69 -23 0 -45 26
-30 35 12 7 14 45 2 45 -5 0 -18 -9 -30 -20z"/>
<path d="M1600 506 c0 -89 1 -94 23 -100 46 -12 47 -11 45 82 l-2 87 -3 -82
c-5 -115 -23 -105 -23 12 0 88 -1 95 -20 95 -19 0 -20 -7 -20 -94z"/>
<path d="M1695 519 c19 -44 35 -86 35 -93 0 -6 11 -13 25 -14 24 -2 25 0 23
51 -1 50 -2 50 -5 10 -5 -47 -22 -60 -21 -15 0 45 -48 142 -71 142 -19 0 -18
-5 14 -81z"/>
<path d="M1809 588 c-1 -7 0 -46 1 -85 1 -47 -2 -73 -9 -73 -6 0 -11 -4 -11
-8 0 -5 6 -9 13 -9 6 0 22 -3 35 -7 24 -8 27 -4 12 24 -6 10 -6 44 -2 82 5 36
6 70 4 76 -5 16 -42 15 -43 0z"/>
<path d="M1891 540 c0 -40 3 -50 9 -35 5 11 9 31 10 45 1 23 2 23 10 5 7 -17
9 -16 9 10 1 24 -3 31 -19 31 -18 0 -20 -7 -19 -56z"/>
<path d="M1963 584 c-5 -13 -8 -13 -15 -2 -7 9 -8 8 -4 -5 4 -12 -9 -45 -35
-89 -22 -38 -39 -71 -37 -73 1 -2 14 -5 28 -7 19 -2 25 2 26 17 1 20 46 110
64 129 5 5 6 -25 3 -66 -5 -66 -3 -76 12 -82 10 -3 20 -4 23 -1 3 3 0 5 -6 5
-8 0 -12 29 -12 95 0 89 -1 95 -20 95 -11 0 -23 -7 -27 -16z"/>
<path d="M2370 580 c0 -17 7 -20 53 -20 29 0 58 -5 64 -11 6 -6 19 -9 29 -7
16 3 15 6 -8 31 -22 23 -33 27 -82 27 -49 0 -56 -2 -56 -20z"/>
<path d="M1251 564 c0 -11 3 -14 6 -6 3 7 2 16 -1 19 -3 4 -6 -2 -5 -13z"/>
<path d="M1273 535 c0 -27 2 -38 4 -22 2 15 2 37 0 50 -2 12 -4 0 -4 -28z"/>
<path d="M1552 560 c0 -14 2 -19 5 -12 2 6 2 18 0 25 -3 6 -5 1 -5 -13z"/>
<path d="M1871 564 c0 -11 3 -14 6 -6 3 7 2 16 -1 19 -3 4 -6 -2 -5 -13z"/>
<path d="M2025 570 c4 -6 11 -8 16 -5 14 9 11 15 -7 15 -8 0 -12 -5 -9 -10z"/>
<path d="M978 514 c17 -22 39 -47 49 -55 14 -11 14 -9 -2 11 -11 13 -33 38
-49 55 -28 30 -28 29 2 -11z"/>
<path d="M1180 490 c0 -55 -11 -78 -23 -47 -3 6 -6 3 -6 -8 -1 -14 6 -21 19
-22 18 -2 20 4 20 68 0 38 -2 69 -5 69 -3 0 -5 -27 -5 -60z"/>
<path d="M1786 535 c-3 -8 -1 -15 4 -15 6 0 10 7 10 15 0 8 -2 15 -4 15 -2 0
-6 -7 -10 -15z"/>
<path d="M2230 511 c0 -22 5 -43 10 -46 6 -4 10 12 10 39 0 25 -4 46 -10 46
-5 0 -10 -18 -10 -39z"/>
<path d="M2263 505 c0 -27 2 -38 4 -22 2 15 2 37 0 50 -2 12 -4 0 -4 -28z"/>
<path d="M2292 505 c0 -16 2 -22 5 -12 2 9 2 23 0 30 -3 6 -5 -1 -5 -18z"/>
<path d="M2370 510 c0 -15 7 -20 28 -20 15 0 33 -5 40 -12 9 -9 12 -5 12 20 0
31 -2 32 -40 32 -33 0 -40 -3 -40 -20z"/>
<path d="M1682 462 c-1 -33 2 -51 8 -47 6 3 10 0 10 -7 0 -9 3 -9 10 2 14 21
12 30 -4 24 -11 -4 -16 5 -19 38 -3 42 -4 41 -5 -10z"/>
<path d="M1973 460 c0 -30 2 -43 4 -27 2 15 2 39 0 55 -2 15 -4 2 -4 -28z"/>
<path d="M2472 490 c0 -14 2 -19 5 -12 2 6 2 18 0 25 -3 6 -5 1 -5 -13z"/>
<path d="M2513 503 c9 -2 23 -2 30 0 6 3 -1 5 -18 5 -16 0 -22 -2 -12 -5z"/>
<path d="M2623 503 c37 -2 96 -2 130 0 34 2 4 3 -68 3 -71 0 -99 -1 -62 -3z"/>
<path d="M2820 497 c0 -12 93 -126 103 -126 8 -1 -8 20 -78 104 -14 17 -25 26
-25 22z"/>
<path d="M1091 448 c-1 -21 4 -38 9 -38 11 0 11 14 0 50 -7 22 -8 21 -9 -12z"/>
<path d="M2370 430 c0 -18 7 -20 54 -20 30 0 66 -4 80 -10 23 -8 26 -7 26 10
0 11 -7 20 -15 20 -8 0 -15 5 -15 10 0 6 -28 10 -65 10 -58 0 -65 -2 -65 -20z"/>
<path d="M1940 419 c0 -11 5 -17 10 -14 6 3 10 13 10 21 0 8 -4 14 -10 14 -5
0 -10 -9 -10 -21z"/>
<path d="M2343 425 c0 -8 4 -12 9 -9 5 3 6 10 3 15 -9 13 -12 11 -12 -6z"/>
<path d="M2310 410 c0 -5 5 -10 11 -10 5 0 7 5 4 10 -3 6 -8 10 -11 10 -2 0
-4 -4 -4 -10z"/>
<path d="M150 313 l-95 -96 85 76 c47 42 88 77 92 77 3 0 7 -77 8 -172 0 -95
3 -174 5 -177 3 -2 5 84 5 192 0 108 -1 197 -3 197 -1 0 -45 -44 -97 -97z"/>
<path d="M11 346 c-15 -18 1 -30 27 -22 10 4 27 0 38 -8 19 -14 19 -15 -2 -42
-28 -38 -40 -40 -58 -7 -10 18 -15 22 -16 12 0 -9 7 -22 15 -29 8 -7 15 -19
15 -26 0 -8 16 3 35 25 19 21 35 45 35 54 0 8 -16 24 -36 36 -42 25 -39 25
-53 7z"/>
<path d="M1104 333 c-3 -16 -7 -34 -10 -40 -2 -7 1 -13 6 -13 5 0 12 12 16 28
3 15 7 33 10 40 2 6 -1 12 -6 12 -5 0 -12 -12 -16 -27z"/>
<path d="M1357 323 c-6 -34 -3 -53 7 -42 9 10 16 79 8 79 -5 0 -12 -17 -15
-37z"/>
<path d="M2023 320 c0 -25 2 -35 4 -22 2 12 2 32 0 45 -2 12 -4 2 -4 -23z"/>
<path d="M2087 353 c-4 -3 -7 -21 -7 -40 0 -31 2 -33 34 -33 19 0 37 4 40 9 4
5 -3 7 -14 4 -17 -5 -18 -3 -7 20 10 22 13 24 19 9 5 -14 7 -14 7 -1 2 30 -51
54 -72 32z m49 -10 c-4 -5 -13 -8 -19 -8 -7 0 -12 -10 -11 -23 0 -12 -3 -22
-8 -22 -10 0 -11 44 -1 53 3 4 15 7 26 7 11 0 17 -3 13 -7z m-11 -23 c3 -5 1
-10 -4 -10 -6 0 -11 5 -11 10 0 6 2 10 4 10 3 0 8 -4 11 -10z"/>
<path d="M2487 353 c-11 -10 -8 -73 3 -73 6 0 10 18 10 40 0 41 -2 45 -13 33z"/>
<path d="M1137 343 c-13 -12 -7 -32 11 -36 12 -3 9 -5 -8 -6 -23 -1 -23 -2 -7
-18 16 -16 19 -16 27 -3 15 23 12 38 -7 43 -13 3 -12 5 5 6 13 0 20 6 17 11
-7 11 -28 13 -38 3z"/>
<path d="M1186 325 c-4 -14 -4 -30 -1 -35 8 -13 35 -13 35 0 0 6 -5 10 -11 10
-7 0 -9 10 -5 25 4 14 2 25 -3 25 -5 0 -12 -11 -15 -25z"/>
<path d="M1235 330 c-18 -19 -18 -22 -2 -38 22 -22 52 -5 52 29 0 31 -26 36
-50 9z m32 -26 c-3 -3 -12 -4 -19 -1 -8 3 -5 6 6 6 11 1 17 -2 13 -5z"/>
<path d="M1304 328 c3 -13 6 -29 6 -35 0 -22 14 -14 28 14 16 36 15 53 -3 29
-13 -17 -15 -18 -15 -3 0 9 -5 17 -11 17 -7 0 -9 -9 -5 -22z"/>
<path d="M1390 324 c-6 -14 -10 -30 -10 -35 0 -13 18 -11 23 4 4 10 6 10 6 0
2 -21 21 -14 21 7 0 22 1 23 26 13 16 -6 16 -7 -2 -14 -18 -6 -18 -7 -1 -14
11 -5 23 -3 30 4 9 10 8 16 -7 27 -19 14 -19 14 -1 14 14 0 16 3 7 12 -8 8
-15 8 -26 -1 -10 -8 -16 -9 -21 -1 -11 18 -35 10 -45 -16z m30 -4 c0 -5 -4
-10 -10 -10 -5 0 -10 5 -10 10 0 6 5 10 10 10 6 0 10 -4 10 -10z"/>
<path d="M1512 338 c-17 -17 -15 -47 3 -54 21 -9 47 15 43 40 -4 24 -28 32
-46 14z m25 -14 c-3 -3 -12 -4 -19 -1 -8 3 -5 6 6 6 11 1 17 -2 13 -5z m0 -20
c-3 -3 -12 -4 -19 -1 -8 3 -5 6 6 6 11 1 17 -2 13 -5z"/>
<path d="M1590 332 c0 -11 -3 -27 -6 -36 -4 -11 0 -16 14 -16 44 0 57 62 14
68 -16 3 -22 -2 -22 -16z m35 -23 c-10 -15 -25 -10 -19 6 4 8 10 12 15 9 5 -3
7 -10 4 -15z"/>
<path d="M1658 325 c-9 -20 -9 -28 1 -38 17 -17 46 4 46 34 0 34 -32 37 -47 4z"/>
<path d="M1724 328 c3 -13 6 -29 6 -35 0 -23 15 -13 32 22 19 37 14 47 -8 18
-13 -17 -13 -17 -14 0 0 9 -5 17 -11 17 -7 0 -9 -9 -5 -22z"/>
<path d="M1788 344 c-12 -21 -18 -64 -8 -64 5 0 10 7 10 16 0 8 4 13 9 9 16
-9 21 11 7 30 -7 10 -15 14 -18 9z"/>
<path d="M1827 343 c-8 -17 -6 -63 3 -63 6 0 10 16 10 35 0 34 -5 43 -13 28z"/>
<path d="M1866 341 c-4 -5 2 -12 11 -14 14 -4 13 -5 -4 -6 -26 -1 -31 -28 -8
-37 21 -9 47 15 43 40 -3 22 -32 34 -42 17z m21 -37 c-3 -3 -12 -4 -19 -1 -8
3 -5 6 6 6 11 1 17 -2 13 -5z"/>
<path d="M1920 334 c0 -9 7 -14 17 -12 25 5 28 28 4 28 -12 0 -21 -6 -21 -16z"/>
<path d="M2171 318 c0 -18 3 -27 6 -19 5 11 7 11 14 0 6 -10 9 -4 9 19 0 22
-5 32 -15 32 -10 0 -15 -10 -14 -32z"/>
<path d="M2210 316 c0 -29 4 -34 20 -33 11 1 20 8 21 17 0 10 3 9 9 -5 10 -23
11 -21 13 23 2 30 0 32 -30 32 -31 0 -33 -2 -33 -34z m30 4 c0 -11 -4 -20 -10
-20 -5 0 -10 9 -10 20 0 11 5 20 10 20 6 0 10 -9 10 -20z"/>
<path d="M2288 344 c-21 -21 2 -67 28 -57 17 6 19 63 3 63 -6 0 -9 -9 -6 -20
3 -11 1 -22 -3 -25 -5 -3 -10 6 -12 21 -2 14 -6 22 -10 18z"/>
<path d="M2341 323 c-1 -25 3 -33 17 -34 9 0 31 -2 47 -4 24 -3 26 -2 13 6
-21 11 -24 34 -6 45 8 5 9 2 5 -10 -4 -10 -3 -15 3 -11 22 14 9 32 -25 33 -33
1 -35 0 -30 -26 6 -27 6 -27 -9 3 l-14 30 -1 -32z m46 -15 c-3 -7 -5 -2 -5 12
0 14 2 19 5 13 2 -7 2 -19 0 -25z"/>
<path d="M2550 346 c0 -3 4 -16 9 -30 7 -17 7 -26 -2 -30 -7 -2 3 -5 21 -5 28
-1 35 4 47 32 12 28 12 32 -2 35 -9 2 -19 -2 -24 -10 -7 -10 -12 -11 -29 0
-11 7 -20 10 -20 8z"/>
<path d="M2669 313 l5 -38 7 35 6 35 2 -35 c2 -29 4 -32 11 -15 6 15 9 16 9 4
1 -9 8 -16 16 -16 10 0 13 9 11 29 -2 15 1 28 5 28 5 0 9 -15 10 -32 0 -18 3
-27 6 -19 5 11 7 11 14 0 6 -10 9 -3 9 19 0 21 4 31 11 26 6 -3 8 -17 5 -29
-5 -19 -2 -23 14 -22 19 1 25 14 21 46 -2 7 2 10 9 6 7 -4 10 -16 7 -26 -3
-10 -1 -21 3 -24 11 -7 22 28 15 47 -7 19 -85 24 -96 6 -7 -10 -9 -10 -9 0 0
19 -48 15 -53 -5 -4 -17 -5 -17 -6 0 0 9 -9 17 -19 17 -15 0 -17 -6 -13 -37z
m148 -5 c-3 -7 -5 -2 -5 12 0 14 2 19 5 13 2 -7 2 -19 0 -25z"/>
<path d="M2870 339 c0 -5 4 -8 9 -5 5 3 11 -3 14 -14 3 -13 0 -20 -9 -20 -8 0
-14 -4 -14 -9 0 -5 9 -7 20 -4 14 4 20 14 20 34 0 22 -5 29 -20 29 -11 0 -20
-5 -20 -11z"/>
<path d="M2927 343 c-13 -12 -7 -51 9 -57 22 -9 24 -8 24 12 0 14 2 15 10 2 7
-11 10 -8 10 16 0 21 -5 31 -15 31 -9 0 -15 -10 -15 -24 0 -12 -5 -23 -10 -23
-6 0 -8 11 -4 25 6 25 3 31 -9 18z"/>
<path d="M1060 329 c0 -4 7 -9 15 -13 9 -3 15 0 15 8 0 7 -7 13 -15 13 -8 0
-15 -4 -15 -8z"/>
<path d="M568 94 c-113 -112 -112 -119 1 -16 90 82 88 83 94 -28 2 -32 4 -13
5 43 1 53 1 97 0 97 -2 0 -46 -43 -100 -96z"/>
</g>
</svg>
