<?xml version="1.0" standalone="no"?>
<!DOCTYPE svg PUBLIC "-//W3C//DTD SVG 20010904//EN"
 "http://www.w3.org/TR/2001/REC-SVG-20010904/DTD/svg10.dtd">
<svg version="1.0" xmlns="http://www.w3.org/2000/svg"
 width="300.000000pt" height="300.000000pt" viewBox="0 0 300.000000 300.000000"
 preserveAspectRatio="xMidYMid meet">
<metadata>
Created by potrace 1.10, written by Peter Selinger 2001-2011
</metadata>
<g transform="translate(0.000000,300.000000) scale(0.100000,-0.100000)"
fill="#000000" stroke="none">
<path d="M1628 2402 c-2 -6 -1164 -1110 -1187 -1129 -2 -2 76 -3 175 -3 l179
1 300 275 300 276 5 -208 5 -209 -92 -93 c-51 -51 -93 -94 -93 -95 0 -1 152
-1 337 1 400 4 436 1 475 -38 54 -54 29 -135 -50 -158 -26 -8 -137 -12 -334
-12 l-294 0 -117 -102 -117 -103 1 -128 c1 -119 2 -127 17 -114 10 8 73 63
142 121 l125 106 215 -1 215 0 95 -115 95 -114 186 -3 187 -2 -58 65 c-32 36
-96 102 -144 148 -63 60 -80 82 -65 82 29 0 110 44 140 77 55 58 74 111 74
203 0 71 -4 93 -25 133 -30 59 -77 102 -146 134 -97 44 -169 53 -450 53 -248
0 -262 -1 -279 -20 -10 -11 -21 -20 -24 -20 -3 0 -6 93 -6 207 0 189 -2 208
-17 211 -17 3 -113 -75 -248 -203 -87 -83 -192 -178 -269 -245 -35 -30 -70
-60 -77 -67 -9 -9 -51 -13 -150 -12 -88 0 -133 4 -124 10 8 5 12 9 8 9 -8 0
184 193 314 315 75 71 265 249 369 345 20 19 95 89 166 156 172 162 219 204
227 204 3 0 6 -157 6 -349 0 -192 3 -356 6 -365 9 -24 36 -19 69 12 16 15 34
26 40 24 5 -2 7 -1 4 3 -7 6 93 105 251 250 41 38 83 78 93 89 9 10 17 15 17
10 0 -5 7 2 16 14 8 12 19 22 25 22 5 0 9 -60 9 -144 l0 -144 -54 -48 c-29
-27 -88 -80 -131 -119 -105 -94 -125 -114 -125 -126 0 -14 22 4 188 155 l141
130 3 182 3 183 -35 -32 c-19 -18 -123 -116 -230 -217 -107 -101 -212 -200
-233 -219 l-38 -36 3 398 c3 349 0 422 -14 389z m399 -982 c76 -12 197 -65
230 -101 45 -51 65 -106 65 -182 1 -121 -48 -198 -163 -255 -29 -15 -55 -33
-57 -40 -2 -7 24 -42 59 -76 103 -101 160 -167 153 -177 -3 -6 -63 -9 -139 -8
-131 1 -133 1 -156 27 -72 85 -156 179 -169 189 -11 9 -78 12 -238 13 l-222 0
-63 -55 c-34 -31 -71 -64 -82 -74 -11 -10 -37 -30 -57 -46 l-38 -27 0 95 0 95
51 44 c53 46 112 97 142 126 16 15 54 18 325 22 281 5 310 7 346 25 25 12 47
34 59 57 18 36 18 38 -1 81 -36 81 -48 83 -504 89 -275 3 -287 6 -235 50 12
11 50 46 83 78 l62 59 240 1 c133 0 272 -4 309 -10z"/>
<path d="M1109 1518 c-140 -128 -274 -250 -297 -270 -23 -21 -42 -39 -42 -40
0 -2 37 -1 83 2 l84 5 216 200 216 200 1 68 c0 37 -2 67 -4 67 -2 0 -118 -105
-257 -232z m214 83 c-15 -13 -73 -65 -128 -116 -55 -50 -120 -109 -145 -131
-24 -21 -54 -48 -65 -59 -42 -43 -79 -65 -106 -65 -38 0 -36 11 9 51 44 38
264 243 377 351 l80 77 3 -42 c3 -36 -1 -45 -25 -66z"/>
<path d="M2121 1663 l-53 -48 -1 -79 0 -79 49 -13 c27 -7 51 -13 54 -14 3 0 5
63 5 140 0 77 0 140 -1 140 0 0 -24 -21 -53 -47z m24 -105 c0 -82 0 -83 -25
-83 -24 0 -25 2 -25 68 0 56 3 71 19 83 11 8 22 14 26 14 3 0 6 -37 5 -82z"/>
</g>
</svg>
